<svg width="48" height="48" viewBox="0 0 48 48" fill="none" xmlns="http://www.w3.org/2000/svg">
<path d="M12.375 44.625H5.625C3.55397 44.625 1.875 42.946 1.875 40.875V7.125C1.875 5.05397 3.55397 3.375 5.625 3.375H12.375C14.446 3.375 16.125 5.05397 16.125 7.125V40.875C16.125 42.946 14.446 44.625 12.375 44.625Z" stroke="white" stroke-width="3" stroke-miterlimit="10" stroke-linecap="round" stroke-linejoin="round"/>
<path d="M42.375 25.875H27.375C25.304 25.875 23.625 24.196 23.625 22.125V7.125C23.625 5.05397 25.304 3.375 27.375 3.375H42.375C44.446 3.375 46.125 5.05397 46.125 7.125V22.125C46.125 24.196 44.446 25.875 42.375 25.875Z" stroke="white" stroke-width="3" stroke-miterlimit="10" stroke-linecap="round" stroke-linejoin="round"/>
<path d="M42.375 44.625H27.375C25.304 44.625 23.625 42.946 23.625 40.875V37.125C23.625 35.054 25.304 33.375 27.375 33.375H42.375C44.446 33.375 46.125 35.054 46.125 37.125V40.875C46.125 42.946 44.446 44.625 42.375 44.625Z" stroke="white" stroke-width="3" stroke-miterlimit="10" stroke-linecap="round" stroke-linejoin="round"/>
<path d="M31.125 10.875H38.625" stroke="white" stroke-width="3" stroke-miterlimit="10" stroke-linecap="round" stroke-linejoin="round"/>
<path d="M34.875 18.375V10.875" stroke="white" stroke-width="3" stroke-miterlimit="10" stroke-linecap="round" stroke-linejoin="round"/>
</svg>
