<svg width="220" height="220" viewBox="0 0 220 220" fill="none" xmlns="http://www.w3.org/2000/svg">
<path d="M83.4734 109.353C78.2969 101.588 74.4146 92.8527 71.8263 83.7939C71.5028 82.8233 72.1499 82.1762 73.1205 81.8527C74.0911 81.5292 74.7381 82.1762 75.0616 83.1468C77.3263 91.8821 80.8852 100.294 86.0616 107.735C86.7087 108.382 86.3852 109.353 85.7381 110C84.7675 110.323 83.7969 110 83.4734 109.353Z" fill="black"/>
<path d="M136.201 110.97C135.231 110.646 134.907 109.676 135.231 109.029C138.142 100.617 140.731 91.5582 142.672 82.8229C142.995 81.8523 143.642 81.5288 144.613 81.5288C145.584 81.8523 145.907 82.4994 145.907 83.47C143.642 92.5288 141.054 101.264 138.142 109.999C137.819 110.646 136.848 111.294 136.201 110.97Z" fill="black"/>
<path d="M67.9421 81.853C70.8539 85.4119 77.001 83.4707 77.001 79.9119C77.001 76.6766 72.7951 73.7648 69.8833 74.4119C66.648 74.7354 66.3245 79.5883 67.9421 81.853Z" fill="black"/>
<path d="M141.067 80.8819C143.979 84.4407 150.126 82.4995 150.126 78.9407C150.126 75.7054 145.92 72.7936 143.008 73.4407C139.773 73.7642 139.449 78.6172 141.067 80.8819Z" fill="black"/>
<path d="M53.7083 134.912L53.0612 168.559C39.1495 167.265 30.7377 155.294 34.62 143.97C37.5318 134.588 46.9142 131.353 53.7083 134.912Z" fill="#FCE67A"/>
<path d="M53.7146 134.912L53.0676 168.559C50.8028 168.235 48.5381 167.912 46.2734 166.941V158.529C46.9205 152.382 47.5676 138.794 50.8028 133.941C51.7734 133.941 52.744 134.265 53.7146 134.912Z" fill="black"/>
<path d="M166.305 168.882L170.187 135.559C176.981 132.647 186.364 137.824 187.981 147.206C190.246 158.853 179.569 169.53 166.305 168.882Z" fill="#FCE67A"/>
<path d="M177.305 166.617C174.069 168.235 170.187 168.882 166.305 168.882L170.187 135.559C170.511 135.559 170.834 135.235 171.158 135.235C171.158 135.559 173.099 139.765 174.716 144.294C176.981 151.735 177.628 158.853 177.305 166.617Z" fill="black"/>
<path d="M170.509 123.911V184.087C170.509 194.764 161.774 203.499 151.098 203.499H71.5094C60.8329 203.499 52.0977 194.764 52.0977 184.087V123.911C52.0977 113.234 60.8329 104.499 71.5094 104.499C97.3918 100.94 123.921 101.264 151.098 104.499C161.774 104.499 170.509 113.234 170.509 123.911Z" fill="#1E1E1E"/>
<path d="M86.7148 118.411C78.303 120.353 69.8912 124.882 66.0089 132.97C57.9207 149.147 62.7736 176.647 76.6854 187.323C85.7442 194.117 98.0383 194.764 109.362 194.441C121.656 194.441 136.215 194.117 147.215 187.97C158.215 181.823 164.362 168.882 163.715 156.264C163.391 145.588 159.185 133.617 151.097 126.5C142.362 119.059 132.979 117.117 122.303 116.147C110.332 115.176 98.3618 116.147 86.7148 118.411Z" fill="#006AFF"/>
<path d="M86.0731 160.147C94.4711 160.147 101.279 153.339 101.279 144.941C101.279 136.543 94.4711 129.735 86.0731 129.735C77.6751 129.735 70.8672 136.543 70.8672 144.941C70.8672 153.339 77.6751 160.147 86.0731 160.147Z" fill="white"/>
<path d="M137.182 160.47C145.58 160.47 152.388 153.662 152.388 145.264C152.388 136.866 145.58 130.058 137.182 130.058C128.784 130.058 121.977 136.866 121.977 145.264C121.977 153.662 128.784 160.47 137.182 160.47Z" fill="white"/>
<path d="M137.835 177.941C135.893 186.353 134.599 195.088 133.952 203.823H88.011C87.6875 196.059 87.0404 188.294 86.0698 180.853C85.7463 179.235 87.0404 177.941 88.3345 177.941L135.246 175.029C136.864 174.706 138.158 176.323 137.835 177.941Z" fill="#D1DDF5"/>
<path d="M137.505 146.882C141.257 146.882 144.299 145.868 144.299 144.617C144.299 143.366 141.257 142.353 137.505 142.353C133.753 142.353 130.711 143.366 130.711 144.617C130.711 145.868 133.753 146.882 137.505 146.882Z" fill="black"/>
<path d="M86.0597 145.911C89.812 145.911 92.8539 145.042 92.8539 143.97C92.8539 142.898 89.812 142.029 86.0597 142.029C82.3075 142.029 79.2656 142.898 79.2656 143.97C79.2656 145.042 82.3075 145.911 86.0597 145.911Z" fill="black"/>
<path d="M67.2997 121.323C71.182 117.764 65.682 111.294 61.7997 114.853C57.9173 118.411 63.0938 125.206 67.2997 121.323Z" fill="white"/>
<path d="M67.2997 195.412C71.182 191.853 65.682 185.382 61.7997 188.941C57.9173 192.176 63.0938 198.97 67.2997 195.412Z" fill="white"/>
<path d="M159.835 197.352C163.717 193.794 158.217 187.323 154.335 190.882C150.452 194.441 155.629 201.235 159.835 197.352Z" fill="white"/>
<path d="M156.916 118.088C160.798 114.529 155.298 108.059 151.416 111.618C147.534 115.176 153.034 121.647 156.916 118.088Z" fill="white"/>
<path d="M90.9203 185.705C92.3497 185.705 93.5085 184.546 93.5085 183.117C93.5085 181.688 92.3497 180.529 90.9203 180.529C89.4908 180.529 88.332 181.688 88.332 183.117C88.332 184.546 89.4908 185.705 90.9203 185.705Z" fill="black"/>
<path d="M133.623 182.147C135.053 182.147 136.212 180.988 136.212 179.559C136.212 178.129 135.053 176.971 133.623 176.971C132.194 176.971 131.035 178.129 131.035 179.559C131.035 180.988 132.194 182.147 133.623 182.147Z" fill="black"/>
<path d="M191.533 152.058C188.297 150.441 189.591 145.911 184.738 150.117C184.091 150.764 183.121 150.441 182.474 149.794C181.827 149.147 182.15 148.176 182.797 147.529C183.768 146.882 184.739 145.911 185.709 145.588C187.327 144.941 188.944 144.941 190.238 145.911C191.209 146.558 191.856 147.529 192.18 148.176C192.503 148.823 192.827 149.147 193.15 149.47V149.146C193.15 148.499 193.474 146.882 195.091 146.558C196.386 145.911 197.033 146.558 203.18 149.47C203.827 149.794 204.474 150.764 203.827 151.735C203.503 152.382 202.533 153.029 201.562 152.382L196.386 149.794C196.386 150.441 196.062 151.088 195.738 151.735C194.768 152.705 193.15 152.705 191.533 152.058Z" fill="black"/>
<path d="M26.211 146.882C25.2404 147.853 23.9463 148.823 22.6522 149.471C18.1228 151.088 14.2404 147.529 16.5051 145.588C17.1522 144.941 18.1228 145.265 18.7698 145.912C19.4169 146.559 20.711 146.559 21.6816 146.235C22.3286 145.912 22.9757 145.912 25.2404 143.647C28.4757 140.735 31.3875 143.647 30.0934 146.559C30.0934 146.882 29.7698 147.206 29.7698 147.206H30.4169C32.0345 147.529 33.9757 147.529 35.2698 146.559C35.9169 146.235 36.8875 146.235 37.5345 147.206C39.4757 151.412 25.2404 153.353 26.211 146.882Z" fill="black"/>
<path d="M113.894 94.7937C110.658 87.6761 107.747 80.5584 105.482 73.4408L99.6583 85.7349C99.0113 87.029 97.3936 87.029 96.7466 85.7349L91.5701 74.4114C91.5701 74.4114 84.4524 80.8819 84.1289 81.2055C83.4818 81.8525 82.5113 81.8525 81.8642 81.2055C81.2171 80.5584 81.2171 79.5878 81.8642 78.9408L88.9819 72.4702C90.923 70.529 93.1877 71.1761 94.1583 73.4408L97.7171 81.529L103.864 68.5878C104.188 67.9408 104.835 67.6172 105.482 67.6172C107.747 67.9408 106.129 70.8525 113.247 87.3525C113.57 80.8819 114.541 74.4114 117.129 68.2643C117.452 67.6172 118.099 67.2937 119.07 67.2937C121.658 67.9408 119.07 70.8525 122.305 80.8819C122.952 78.6172 123.923 76.6761 125.217 74.4114C125.864 73.4408 127.158 73.1172 127.805 74.0878C128.452 75.0584 130.394 75.7055 132.011 75.3819C132.982 75.0584 133.629 75.7055 133.952 76.6761C134.599 79.2643 129.747 79.2643 127.158 77.6466C123.599 84.7643 124.894 87.029 122.952 87.3525C122.305 87.3525 121.658 87.029 121.335 86.3819C119.717 83.1466 118.747 79.9114 118.099 76.6761C116.805 82.4996 116.805 88.6466 116.482 94.4702C116.482 95.1172 115.835 95.7643 115.188 96.0878C114.864 95.7643 114.217 95.4408 113.894 94.7937Z" fill="#FFDC00"/>
<path d="M59.2224 201.559C55.0166 198.647 51.7813 193.794 50.4872 187.647C48.8695 180.853 49.5166 178.912 51.4577 118.088C51.4577 117.118 52.1048 116.471 53.0754 116.471C54.046 116.471 54.693 117.118 54.693 118.088C52.7519 179.235 52.1048 180.53 53.7224 186.677C55.0166 191.853 57.6048 196.059 61.1636 198.647C70.2224 204.794 79.9283 198.971 146.899 201.559C147.87 201.559 148.517 202.206 148.517 203.177C148.517 204.147 147.87 204.794 146.899 204.794C78.9577 202.206 69.5754 208.353 59.2224 201.559Z" fill="black"/>
<path d="M206.739 155.294C209.598 155.294 211.915 152.976 211.915 150.117C211.915 147.259 209.598 144.941 206.739 144.941C203.88 144.941 201.562 147.259 201.562 150.117C201.562 152.976 203.88 155.294 206.739 155.294Z" fill="black"/>
<path d="M13.278 151.412C16.1369 151.412 18.4545 149.094 18.4545 146.235C18.4545 143.376 16.1369 141.059 13.278 141.059C10.4191 141.059 8.10156 143.376 8.10156 146.235C8.10156 149.094 10.4191 151.412 13.278 151.412Z" fill="black"/>
<path d="M53.7011 66.9706C52.7305 68.2647 50.7893 68.2647 50.1422 66.9706C47.2305 62.1176 36.554 43.6765 33.3187 38.1765C32.3481 36.5588 33.6422 34.9412 35.2599 34.9412C38.4952 33 41.4069 31.0588 45.2893 29.1176C46.2599 28.4706 47.554 29.1176 48.2011 30.0882C48.8481 31.0588 48.2011 32.3529 47.2305 33C43.6716 34.9412 41.0834 36.5588 38.1716 38.1765C41.4069 44 44.3187 48.5294 46.9069 53.0588C49.1716 51.7647 51.1128 50.4706 53.054 49.5C54.0246 48.8529 55.3187 49.1765 55.9658 50.4706C56.6128 51.4412 56.2893 52.7353 55.3187 53.3823C54.9952 53.7059 53.054 54.6765 49.4952 56.9412C50.7893 59.2059 52.0834 61.4706 53.054 63.0882C55.9658 61.147 58.8775 59.5294 62.4363 57.5882C63.4069 56.9412 64.7011 57.5882 65.3481 58.5588C65.9952 59.5294 65.6716 60.8235 64.3775 61.4706C63.7305 61.147 60.8187 62.4412 53.7011 66.9706Z" fill="black"/>
<path d="M83.1449 40.1169C83.1449 44.3228 81.5272 48.5286 77.9684 50.7934C79.9096 51.4404 81.8508 51.7639 83.4684 51.7639C84.7625 51.7639 85.7331 52.7345 85.7331 54.0286C85.7331 55.3228 84.7625 56.2934 83.4684 56.2934C79.2625 56.2934 75.3802 55.3228 72.1449 53.0581C72.4684 54.0286 72.7919 55.3228 72.7919 56.2934C73.1155 57.5875 72.4684 58.5581 71.1743 58.8816C69.8802 59.2051 68.9096 58.5581 68.5861 57.2639C65.9978 46.5875 63.4096 35.911 60.8213 24.2639C60.1743 21.6757 64.3802 20.0581 65.0272 23.9404C67.939 20.0581 72.7919 19.411 76.0272 21.9992C80.2331 25.2345 83.1449 34.6169 83.1449 40.1169ZM73.439 25.5581C70.5272 23.2933 66.3214 26.8522 66.9684 31.3816C67.939 35.5875 68.9096 40.1169 70.2037 44.3228C72.4684 49.4992 78.6155 47.8816 78.939 39.7934C78.939 35.5875 76.3508 27.8228 73.439 25.5581Z" fill="black"/>
<path d="M109.994 38.4996C109.024 42.3819 106.436 46.2643 102.553 47.5584C104.171 48.529 106.112 49.1761 107.73 49.8231C109.024 50.1466 109.671 51.4408 109.347 52.4114C109.024 53.3819 108.053 54.029 107.406 54.029C106.112 54.029 100.612 52.0878 96.7298 48.2055V51.4408C96.7298 52.7349 95.7592 53.3819 94.4651 53.3819C93.171 53.3819 92.2004 52.4114 92.5239 51.1172C92.2004 38.8231 92.2004 29.1172 92.5239 17.1466C92.5239 14.5584 97.0533 13.9113 96.7298 17.7937C98.0239 16.8231 99.6415 16.1761 101.259 16.1761C110.642 15.529 112.259 30.4113 109.994 38.4996ZM101.583 20.3819C99.318 20.7055 97.0533 22.6466 96.7298 25.8819C96.7298 30.4113 96.7298 34.2937 96.4062 39.4702C97.3768 45.2937 103.524 44.9702 105.789 37.2055C107.406 32.3525 107.083 20.0584 101.583 20.3819Z" fill="black"/>
<path d="M118.738 42.3824C118.738 38.1765 119.062 32.353 121.65 26.853C127.15 15.853 136.856 16.1765 139.768 23.2941C143.003 31.0588 137.503 45.9412 134.591 50.4706C129.091 59.5294 119.062 58.2353 118.738 42.3824ZM131.356 48.2059C134.268 43.6765 138.474 30.7353 136.209 25.2353C134.591 21.353 129.415 22 125.856 28.7941C123.591 33.3235 123.268 38.5 123.268 42.3824C123.268 51.4412 126.827 55.3235 131.356 48.2059Z" fill="black"/>
<path d="M168.234 44.9706C166.617 49.1765 164.676 52.7353 162.087 55C159.176 57.9118 155.293 60.1765 151.087 59.2059C152.058 60.8235 153.352 62.4412 154.646 63.4118C155.617 64.3824 155.617 65.6765 154.646 66.3235C153.676 67.2941 152.381 67.2941 151.734 66.3235C148.823 63.4118 146.558 60.1765 145.587 56.2941C144.94 57.2647 144.617 58.2353 143.97 59.2059C143.323 60.1765 142.028 60.5 141.058 60.1765C140.087 59.5294 139.764 58.2353 140.411 57.2647C145.911 47.5588 151.087 37.853 156.911 27.8235C157.558 26.853 158.852 26.5294 159.823 27.1765C160.793 27.8235 161.117 29.1177 160.47 30.0882C160.47 30.0882 160.47 30.4118 160.146 30.4118C161.764 30.0882 163.381 30.4118 164.676 31.0588C170.499 33.6471 170.499 39.4706 168.234 44.9706ZM164.352 43.353C165.323 40.1177 166.293 36.5588 163.381 35.2647C161.44 34.2941 158.205 35.2647 156.587 37.853C154.323 42.0588 152.058 45.6177 150.117 49.5C148.176 55 153.999 57.9118 159.499 52.0882C161.44 49.8235 163.058 46.9118 164.352 43.353Z" fill="black"/>
</svg>
