<svg width="40" height="40" viewBox="0 0 40 40" fill="none" xmlns="http://www.w3.org/2000/svg">
<g clip-path="url(#clip0_249_237)">
<path d="M26.2505 32.1875H33.7505C36.3393 32.1875 38.438 30.0888 38.438 27.5V6.25C38.438 3.66117 36.3393 1.5625 33.7505 1.5625H6.25049C3.66166 1.5625 1.56299 3.66117 1.56299 6.25V27.5C1.56299 30.0888 3.66166 32.1875 6.25049 32.1875H20.0005V38.4375" stroke="white" stroke-width="2.72727" stroke-miterlimit="10" stroke-linecap="round" stroke-linejoin="round"/>
<path d="M13.7505 38.4375H26.2505" stroke="white" stroke-width="2.72727" stroke-miterlimit="10" stroke-linecap="round" stroke-linejoin="round"/>
<path d="M20.0005 23.125C23.4523 23.125 26.2505 20.3268 26.2505 16.875C26.2505 13.4232 23.4523 10.625 20.0005 10.625C16.5487 10.625 13.7505 13.4232 13.7505 16.875C13.7505 20.3268 16.5487 23.125 20.0005 23.125Z" stroke="white" stroke-width="2.72727" stroke-miterlimit="10" stroke-linecap="round" stroke-linejoin="round"/>
<path d="M20.0005 7.5V10.625" stroke="white" stroke-width="2.72727" stroke-miterlimit="10" stroke-linecap="round" stroke-linejoin="round"/>
<path d="M20.0005 23.125V26.25" stroke="white" stroke-width="2.72727" stroke-miterlimit="10" stroke-linecap="round" stroke-linejoin="round"/>
<path d="M13.3706 10.246L15.5803 12.4557" stroke="white" stroke-width="2.72727" stroke-miterlimit="10" stroke-linecap="round" stroke-linejoin="round"/>
<path d="M24.4194 21.2939L26.6291 23.5036" stroke="white" stroke-width="2.72727" stroke-miterlimit="10" stroke-linecap="round" stroke-linejoin="round"/>
<path d="M10.6255 16.875H13.7505" stroke="white" stroke-width="2.72727" stroke-miterlimit="10" stroke-linecap="round" stroke-linejoin="round"/>
<path d="M26.2505 16.8749H29.3755" stroke="white" stroke-width="2.72727" stroke-miterlimit="10" stroke-linecap="round" stroke-linejoin="round"/>
<path d="M13.3711 23.5046L15.5808 21.2949" stroke="white" stroke-width="2.72727" stroke-miterlimit="10" stroke-linecap="round" stroke-linejoin="round"/>
<path d="M24.4194 12.4557L26.6291 10.246" stroke="white" stroke-width="2.72727" stroke-miterlimit="10" stroke-linecap="round" stroke-linejoin="round"/>
<circle cx="20.0005" cy="16.875" r="1.5625" fill="white"/>
</g>
<defs>
<clipPath id="clip0_249_237">
<rect width="40" height="40" fill="white"/>
</clipPath>
</defs>
</svg>
