<svg width="43" height="42" viewBox="0 0 43 42" fill="none" xmlns="http://www.w3.org/2000/svg">
<g clip-path="url(#clip0_258_273)">
<mask id="mask0_258_273" style="mask-type:luminance" maskUnits="userSpaceOnUse" x="0" y="0" width="43" height="43">
<path d="M0.401855 0.00195694H42.4019V42.002H0.401855V0.00195694Z" fill="white"/>
</mask>
<g mask="url(#mask0_258_273)">
<path d="M20.2072 31.4766L10.9264 22.1959C9.64498 20.9144 9.64498 18.8369 10.9264 17.5554L22.1509 6.33101C26.5325 1.9494 33.2263 0.863135 38.7687 3.63432C41.5399 9.17667 40.4536 15.8705 36.072 20.2521L24.8476 31.4766C23.5662 32.758 21.4886 32.758 20.2072 31.4766Z" stroke="#006AFF" stroke-width="2" stroke-miterlimit="10" stroke-linecap="round" stroke-linejoin="round"/>
<path d="M15.566 36.1173C10.4085 41.2748 2.12334 40.2792 2.12334 40.2792C2.12334 40.2792 1.11788 32.0039 6.28528 26.8365" stroke="#006AFF" stroke-width="2" stroke-miterlimit="10" stroke-linecap="round" stroke-linejoin="round"/>
<path d="M40.7601 1.64272L38.7681 3.63477" stroke="#006AFF" stroke-width="2" stroke-miterlimit="10" stroke-linecap="round" stroke-linejoin="round"/>
<path d="M29.4886 17.5546C28.2072 18.836 26.1296 18.836 24.8483 17.5546C23.5669 16.2732 23.5669 14.1956 24.8483 12.9142C26.1296 11.6328 28.2072 11.6328 29.4886 12.9142C30.77 14.1956 30.77 16.2732 29.4886 17.5546Z" stroke="#006AFF" stroke-width="2" stroke-miterlimit="10" stroke-linecap="round" stroke-linejoin="round"/>
<path d="M2.04248 17.1445L6.28645 12.9143C8.84927 10.3514 13.0044 10.3514 15.5672 12.9143" stroke="#006AFF" stroke-width="2" stroke-miterlimit="10" stroke-linecap="round" stroke-linejoin="round"/>
<path d="M25.2583 40.3613L29.4885 36.1174C32.0514 33.5545 32.0514 29.3994 29.4885 26.8366" stroke="#006AFF" stroke-width="2" stroke-miterlimit="10" stroke-linecap="round" stroke-linejoin="round"/>
</g>
</g>
<defs>
<clipPath id="clip0_258_273">
<rect width="42" height="42" fill="white" transform="translate(0.399902)"/>
</clipPath>
</defs>
</svg>
