<svg width="42" height="42" viewBox="0 0 42 42" fill="none" xmlns="http://www.w3.org/2000/svg">
<g clip-path="url(#clip0_258_296)">
<mask id="mask0_258_296" style="mask-type:luminance" maskUnits="userSpaceOnUse" x="0" y="0" width="43" height="43">
<path d="M0.00195312 0.00195694H42.0019V42.002H0.00195312V0.00195694Z" fill="white"/>
</mask>
<g mask="url(#mask0_258_296)">
<path d="M21.002 1.64258V4.92383" stroke="#006AFF" stroke-width="2" stroke-miterlimit="10" stroke-linecap="round" stroke-linejoin="round"/>
<path d="M21.002 21.3301V40.3613" stroke="#006AFF" stroke-width="2" stroke-miterlimit="10" stroke-linecap="round" stroke-linejoin="round"/>
<path d="M7.87695 40.3613V37.0801" stroke="#006AFF" stroke-width="2" stroke-miterlimit="10" stroke-linecap="round" stroke-linejoin="round"/>
<path d="M7.87695 21.0019V1.64252" stroke="#006AFF" stroke-width="2" stroke-miterlimit="10" stroke-linecap="round" stroke-linejoin="round"/>
<path d="M12.7988 25.9238C12.7988 23.2055 10.5952 21.0019 7.87695 21.0019C5.15868 21.0019 2.95508 23.2055 2.95508 25.9238C2.95508 28.642 5.15868 30.8456 7.87695 30.8456C10.5952 30.8456 12.7988 28.642 12.7988 25.9238Z" stroke="#006AFF" stroke-width="2" stroke-miterlimit="10" stroke-linecap="round" stroke-linejoin="round"/>
<path d="M25.9238 16.4083C25.9238 13.69 23.7202 11.4864 21.002 11.4864C18.2837 11.4864 16.0801 13.69 16.0801 16.4083C16.0801 19.1265 18.2837 21.3301 21.002 21.3301C23.7202 21.3301 25.9238 19.1265 25.9238 16.4083Z" stroke="#006AFF" stroke-width="2" stroke-miterlimit="10" stroke-linecap="round" stroke-linejoin="round"/>
<path d="M34.127 40.3613V37.0801" stroke="#006AFF" stroke-width="2" stroke-miterlimit="10" stroke-linecap="round" stroke-linejoin="round"/>
<path d="M34.127 21.0019V1.64252" stroke="#006AFF" stroke-width="2" stroke-miterlimit="10" stroke-linecap="round" stroke-linejoin="round"/>
<path d="M39.0488 25.9238C39.0488 23.2055 36.8452 21.0019 34.127 21.0019C31.4087 21.0019 29.2051 23.2055 29.2051 25.9238C29.2051 28.642 31.4087 30.8456 34.127 30.8456C36.8452 30.8456 39.0488 28.642 39.0488 25.9238Z" stroke="#006AFF" stroke-width="2" stroke-miterlimit="10" stroke-linecap="round" stroke-linejoin="round"/>
</g>
</g>
<defs>
<clipPath id="clip0_258_296">
<rect width="42" height="42" fill="white"/>
</clipPath>
</defs>
</svg>
