<svg width="43" height="42" viewBox="0 0 43 42" fill="none" xmlns="http://www.w3.org/2000/svg">
<g clip-path="url(#clip0_258_252)">
<mask id="mask0_258_252" style="mask-type:luminance" maskUnits="userSpaceOnUse" x="0" y="0" width="43" height="43">
<path d="M0.801758 0.00195694H42.8018V42.002H0.801758V0.00195694Z" fill="white"/>
</mask>
<g mask="url(#mask0_258_252)">
<path d="M32.7939 27.9766H38.085C39.7839 27.9766 41.1611 26.5993 41.1611 24.9005C41.1611 23.2015 39.7839 21.8243 38.085 21.8243H32.7939" stroke="#006AFF" stroke-width="2" stroke-miterlimit="10" stroke-linecap="round" stroke-linejoin="round"/>
<path d="M32.7939 34.129H37.8389C39.5378 34.129 40.915 32.7517 40.915 31.0528C40.915 29.3538 39.5378 27.9766 37.8389 27.9766" stroke="#006AFF" stroke-width="2" stroke-miterlimit="10" stroke-linecap="round" stroke-linejoin="round"/>
<path d="M19.0127 40.3601L35.542 40.3633C37.2409 40.3633 38.6182 38.9861 38.6182 37.2871C38.6182 35.5882 37.2409 34.1257 35.542 34.1257" stroke="#006AFF" stroke-width="2" stroke-miterlimit="10" stroke-linecap="round" stroke-linejoin="round"/>
<path d="M36.8545 21.8245C38.5534 21.8245 39.9307 20.4472 39.9307 18.7483C39.9307 17.0494 38.5534 15.6721 36.8545 15.6721L25.9853 15.6689C28.4463 10.7471 28.9895 9.17363 29.4972 6.84321C30.0049 4.5127 29.3597 2.71064 27.4302 1.92273C25.5006 1.13473 23.7489 2.06013 22.9609 3.98967C22.9609 3.98967 21.9224 7.24828 21.0635 8.77832C20.0323 10.6152 18.6465 12.3003 17.3439 13.6692C15.2233 15.8978 12.2719 17.1455 9.19552 17.1455H6.87207C4.42565 17.1455 2.44238 19.1288 2.44238 21.5752V29.04" stroke="#006AFF" stroke-width="2" stroke-miterlimit="10" stroke-linecap="round" stroke-linejoin="round"/>
<path d="M2.44238 35.6025L5.99073 39.2048C7.51831 40.7455 9.995 40.7455 11.5226 39.2048L21.8018 27.7275" stroke="#006AFF" stroke-width="2" stroke-miterlimit="10" stroke-linecap="round" stroke-linejoin="round"/>
</g>
</g>
<defs>
<clipPath id="clip0_258_252">
<rect width="42" height="42" fill="white" transform="translate(0.799805)"/>
</clipPath>
</defs>
</svg>
